<svg width="146" height="125" viewBox="0 0 146 125" fill="none" xmlns="http://www.w3.org/2000/svg">
<g id="Dot Illu" opacity="0.7">
<path id="Vector" d="M2.92004 1.71997C2.34252 1.71997 1.77793 1.89122 1.29774 2.21207C0.81755 2.53293 0.443236 2.98895 0.222228 3.52251C0.00121977 4.05607 -0.0565447 4.64321 0.0561241 5.20963C0.168793 5.77605 0.446905 6.29634 0.855275 6.70471C1.26364 7.11308 1.7839 7.39119 2.35033 7.50386C2.91675 7.61653 3.50394 7.55871 4.0375 7.3377C4.57106 7.11669 5.02706 6.7424 5.34791 6.26221C5.66877 5.78202 5.84004 5.21749 5.84004 4.63997C5.84004 3.86554 5.53242 3.12281 4.98481 2.5752C4.43721 2.0276 3.69448 1.71997 2.92004 1.71997Z" fill="#0A4740"/>
<path id="Vector_2" d="M2.92004 25.08C2.34252 25.08 1.77793 25.2512 1.29774 25.5721C0.81755 25.8929 0.443236 26.3489 0.222228 26.8825C0.00121977 27.4161 -0.0565447 28.0032 0.0561241 28.5696C0.168793 29.136 0.446905 29.6563 0.855275 30.0647C1.26364 30.4731 1.7839 30.7512 2.35033 30.8638C2.91675 30.9765 3.50394 30.9187 4.0375 30.6977C4.57106 30.4767 5.02706 30.1024 5.34791 29.6222C5.66877 29.142 5.84004 28.5775 5.84004 28C5.84004 27.2255 5.53242 26.4828 4.98481 25.9352C4.43721 25.3876 3.69448 25.08 2.92004 25.08Z" fill="#0A4740"/>
<path id="Vector_3" d="M2.92004 48.4399C2.34252 48.4399 1.77793 48.6112 1.29774 48.932C0.81755 49.2529 0.443236 49.7089 0.222228 50.2425C0.00121977 50.776 -0.0565447 51.3632 0.0561241 51.9296C0.168793 52.496 0.446905 53.0163 0.855275 53.4247C1.26364 53.8331 1.7839 54.1112 2.35033 54.2238C2.91675 54.3365 3.50394 54.2787 4.0375 54.0577C4.57106 53.8367 5.02706 53.4624 5.34791 52.9822C5.66877 52.502 5.84004 51.9375 5.84004 51.3599C5.84004 50.5855 5.53242 49.8428 4.98481 49.2952C4.43721 48.7476 3.69448 48.4399 2.92004 48.4399Z" fill="#0A4740"/>
<path id="Vector_4" d="M2.92004 71.7999C2.34252 71.7999 1.77793 71.9712 1.29774 72.292C0.81755 72.6129 0.443236 73.0689 0.222228 73.6025C0.00121977 74.136 -0.0565447 74.7232 0.0561241 75.2896C0.168793 75.856 0.446905 76.3763 0.855275 76.7847C1.26364 77.193 1.7839 77.4711 2.35033 77.5838C2.91675 77.6965 3.50394 77.6387 4.0375 77.4177C4.57106 77.1966 5.02706 76.8224 5.34791 76.3422C5.66877 75.862 5.84004 75.2974 5.84004 74.7199C5.84004 73.9455 5.53242 73.2028 4.98481 72.6552C4.43721 72.1076 3.69448 71.7999 2.92004 71.7999Z" fill="#0A4740"/>
<path id="Vector_5" d="M2.92004 95.16C2.34252 95.16 1.77793 95.3312 1.29774 95.6521C0.81755 95.9729 0.443236 96.429 0.222228 96.9625C0.00121977 97.4961 -0.0565447 98.0832 0.0561241 98.6496C0.168793 99.2161 0.446905 99.7363 0.855275 100.145C1.26364 100.553 1.7839 100.831 2.35033 100.944C2.91675 101.057 3.50394 100.999 4.0375 100.778C4.57106 100.557 5.02706 100.182 5.34791 99.7022C5.66877 99.222 5.84004 98.6575 5.84004 98.08C5.84004 97.3055 5.53242 96.5628 4.98481 96.0152C4.43721 95.4676 3.69448 95.16 2.92004 95.16Z" fill="#0A4740"/>
<path id="Vector_6" d="M2.92004 118.52C2.34252 118.52 1.77793 118.691 1.29774 119.012C0.81755 119.333 0.443236 119.789 0.222228 120.323C0.00121977 120.856 -0.0565447 121.443 0.0561241 122.01C0.168793 122.576 0.446905 123.096 0.855275 123.505C1.26364 123.913 1.7839 124.191 2.35033 124.304C2.91675 124.417 3.50394 124.359 4.0375 124.138C4.57106 123.917 5.02706 123.542 5.34791 123.062C5.66877 122.582 5.84004 122.017 5.84004 121.44C5.84004 120.666 5.53242 119.923 4.98481 119.375C4.43721 118.828 3.69448 118.52 2.92004 118.52Z" fill="#0A4740"/>
<path id="Vector_7" d="M26.2794 1.71997C25.7019 1.71997 25.1373 1.89122 24.6571 2.21207C24.1769 2.53293 23.8026 2.98895 23.5816 3.52251C23.3606 4.05607 23.3028 4.64321 23.4155 5.20963C23.5282 5.77605 23.8063 6.29634 24.2146 6.70471C24.623 7.11308 25.1433 7.39119 25.7097 7.50386C26.2761 7.61653 26.8633 7.55871 27.3969 7.3377C27.9304 7.11669 28.3864 6.7424 28.7073 6.26221C29.0281 5.78202 29.1994 5.21749 29.1994 4.63997C29.1994 3.86554 28.8918 3.12281 28.3442 2.5752C27.7966 2.0276 27.0539 1.71997 26.2794 1.71997Z" fill="#0A4740"/>
<path id="Vector_8" d="M26.2794 25.0801C25.7019 25.0801 25.1373 25.2513 24.6571 25.5722C24.1769 25.893 23.8026 26.3491 23.5816 26.8826C23.3606 27.4162 23.3028 28.0033 23.4155 28.5697C23.5282 29.1362 23.8063 29.6564 24.2146 30.0648C24.623 30.4732 25.1433 30.7513 25.7097 30.864C26.2761 30.9766 26.8633 30.9188 27.3969 30.6978C27.9304 30.4768 28.3864 30.1025 28.7073 29.6223C29.0281 29.1421 29.1994 28.5776 29.1994 28.0001C29.1994 27.2256 28.8918 26.4829 28.3442 25.9353C27.7966 25.3877 27.0539 25.0801 26.2794 25.0801Z" fill="#0A4740"/>
<path id="Vector_9" d="M26.2794 48.4399C25.7019 48.4399 25.1373 48.6112 24.6571 48.932C24.1769 49.2529 23.8026 49.7089 23.5816 50.2425C23.3606 50.776 23.3028 51.3632 23.4155 51.9296C23.5282 52.496 23.8063 53.0163 24.2146 53.4247C24.623 53.8331 25.1433 54.1112 25.7097 54.2238C26.2761 54.3365 26.8633 54.2787 27.3969 54.0577C27.9304 53.8367 28.3864 53.4624 28.7073 52.9822C29.0281 52.502 29.1994 51.9375 29.1994 51.3599C29.1994 50.5855 28.8918 49.8428 28.3442 49.2952C27.7966 48.7476 27.0539 48.4399 26.2794 48.4399Z" fill="#0A4740"/>
<path id="Vector_10" d="M26.2794 71.8C25.7019 71.8 25.1373 71.9713 24.6571 72.2922C24.1769 72.613 23.8026 73.069 23.5816 73.6026C23.3606 74.1362 23.3028 74.7233 23.4155 75.2897C23.5282 75.8561 23.8063 76.3764 24.2146 76.7848C24.623 77.1932 25.1433 77.4713 25.7097 77.5839C26.2761 77.6966 26.8633 77.6388 27.3969 77.4178C27.9304 77.1968 28.3864 76.8225 28.7073 76.3423C29.0281 75.8621 29.1994 75.2976 29.1994 74.72C29.1994 73.9456 28.8918 73.2029 28.3442 72.6553C27.7966 72.1077 27.0539 71.8 26.2794 71.8Z" fill="#0A4740"/>
<path id="Vector_11" d="M26.2794 95.1599C25.7019 95.1599 25.1373 95.3312 24.6571 95.652C24.1769 95.9729 23.8026 96.4289 23.5816 96.9625C23.3606 97.496 23.3028 98.0831 23.4155 98.6496C23.5282 99.216 23.8063 99.7363 24.2146 100.145C24.623 100.553 25.1433 100.831 25.7097 100.944C26.2761 101.056 26.8633 100.999 27.3969 100.778C27.9304 100.557 28.3864 100.182 28.7073 99.7022C29.0281 99.222 29.1994 98.6574 29.1994 98.0799C29.1994 97.3055 28.8918 96.5627 28.3442 96.0151C27.7966 95.4675 27.0539 95.1599 26.2794 95.1599Z" fill="#0A4740"/>
<path id="Vector_12" d="M26.2794 118.52C25.7019 118.52 25.1373 118.691 24.6571 119.012C24.1769 119.333 23.8026 119.789 23.5816 120.323C23.3606 120.856 23.3028 121.443 23.4155 122.01C23.5282 122.576 23.8063 123.096 24.2146 123.505C24.623 123.913 25.1433 124.191 25.7097 124.304C26.2761 124.417 26.8633 124.359 27.3969 124.138C27.9304 123.917 28.3864 123.542 28.7073 123.062C29.0281 122.582 29.1994 122.018 29.1994 121.44C29.1994 120.666 28.8918 119.923 28.3442 119.375C27.7966 118.828 27.0539 118.52 26.2794 118.52Z" fill="#0A4740"/>
<path id="Vector_13" d="M49.6407 1.71997C49.0632 1.71997 48.4986 1.89122 48.0184 2.21207C47.5383 2.53293 47.1639 2.98895 46.9429 3.52251C46.7219 4.05607 46.6642 4.64321 46.7768 5.20963C46.8895 5.77605 47.1676 6.29634 47.576 6.70471C47.9843 7.11308 48.5046 7.39119 49.071 7.50386C49.6375 7.61653 50.2246 7.55871 50.7582 7.3377C51.2918 7.11669 51.7478 6.7424 52.0686 6.26221C52.3895 5.78202 52.5607 5.21749 52.5607 4.63997C52.5607 3.86554 52.2531 3.12281 51.7055 2.5752C51.1579 2.0276 50.4152 1.71997 49.6407 1.71997Z" fill="#0A4740"/>
<path id="Vector_14" d="M49.6407 25.0801C49.0632 25.0801 48.4986 25.2513 48.0184 25.5722C47.5383 25.893 47.1639 26.3491 46.9429 26.8826C46.7219 27.4162 46.6642 28.0033 46.7768 28.5697C46.8895 29.1362 47.1676 29.6564 47.576 30.0648C47.9843 30.4732 48.5046 30.7513 49.071 30.864C49.6375 30.9766 50.2246 30.9188 50.7582 30.6978C51.2918 30.4768 51.7478 30.1025 52.0686 29.6223C52.3895 29.1421 52.5607 28.5776 52.5607 28.0001C52.5607 27.2256 52.2531 26.4829 51.7055 25.9353C51.1579 25.3877 50.4152 25.0801 49.6407 25.0801Z" fill="#0A4740"/>
<path id="Vector_15" d="M49.6407 48.4399C49.0632 48.4399 48.4986 48.6112 48.0184 48.932C47.5383 49.2529 47.1639 49.7089 46.9429 50.2425C46.7219 50.776 46.6642 51.3632 46.7768 51.9296C46.8895 52.496 47.1676 53.0163 47.576 53.4247C47.9843 53.8331 48.5046 54.1112 49.071 54.2238C49.6375 54.3365 50.2246 54.2787 50.7582 54.0577C51.2918 53.8367 51.7478 53.4624 52.0686 52.9822C52.3895 52.502 52.5607 51.9375 52.5607 51.3599C52.5607 50.5855 52.2531 49.8428 51.7055 49.2952C51.1579 48.7476 50.4152 48.4399 49.6407 48.4399Z" fill="#0A4740"/>
<path id="Vector_16" d="M49.6407 71.8C49.0632 71.8 48.4986 71.9713 48.0184 72.2922C47.5383 72.613 47.1639 73.069 46.9429 73.6026C46.7219 74.1362 46.6642 74.7233 46.7768 75.2897C46.8895 75.8561 47.1676 76.3764 47.576 76.7848C47.9843 77.1932 48.5046 77.4713 49.071 77.5839C49.6375 77.6966 50.2246 77.6388 50.7582 77.4178C51.2918 77.1968 51.7478 76.8225 52.0686 76.3423C52.3895 75.8621 52.5607 75.2976 52.5607 74.72C52.5607 73.9456 52.2531 73.2029 51.7055 72.6553C51.1579 72.1077 50.4152 71.8 49.6407 71.8Z" fill="#0A4740"/>
<path id="Vector_17" d="M49.6407 95.1599C49.0632 95.1599 48.4986 95.3312 48.0184 95.652C47.5383 95.9729 47.1639 96.4289 46.9429 96.9625C46.7219 97.496 46.6642 98.0831 46.7768 98.6496C46.8895 99.216 47.1676 99.7363 47.576 100.145C47.9843 100.553 48.5046 100.831 49.071 100.944C49.6375 101.056 50.2246 100.999 50.7582 100.778C51.2918 100.557 51.7478 100.182 52.0686 99.7022C52.3895 99.222 52.5607 98.6574 52.5607 98.0799C52.5607 97.3055 52.2531 96.5627 51.7055 96.0151C51.1579 95.4675 50.4152 95.1599 49.6407 95.1599Z" fill="#0A4740"/>
<path id="Vector_18" d="M49.6407 118.52C49.0632 118.52 48.4986 118.691 48.0184 119.012C47.5383 119.333 47.1639 119.789 46.9429 120.323C46.7219 120.856 46.6642 121.443 46.7768 122.01C46.8895 122.576 47.1676 123.096 47.576 123.505C47.9843 123.913 48.5046 124.191 49.071 124.304C49.6375 124.417 50.2246 124.359 50.7582 124.138C51.2918 123.917 51.7478 123.542 52.0686 123.062C52.3895 122.582 52.5607 122.018 52.5607 121.44C52.5607 120.666 52.2531 119.923 51.7055 119.375C51.1579 118.828 50.4152 118.52 49.6407 118.52Z" fill="#0A4740"/>
<path id="Vector_19" d="M73 1.71997C72.4225 1.71997 71.8579 1.89122 71.3777 2.21207C70.8975 2.53293 70.5232 2.98895 70.3022 3.52251C70.0812 4.05607 70.0234 4.64321 70.1361 5.20963C70.2487 5.77605 70.5269 6.29634 70.9352 6.70471C71.3436 7.11308 71.8639 7.39119 72.4303 7.50386C72.9967 7.61653 73.5839 7.55871 74.1175 7.3377C74.651 7.11669 75.107 6.7424 75.4279 6.26221C75.7487 5.78202 75.92 5.21749 75.92 4.63997C75.92 3.86554 75.6124 3.12281 75.0648 2.5752C74.5172 2.0276 73.7744 1.71997 73 1.71997Z" fill="#0A4740"/>
<path id="Vector_20" d="M73 25.08C72.4225 25.08 71.8579 25.2512 71.3777 25.5721C70.8975 25.8929 70.5232 26.3489 70.3022 26.8825C70.0812 27.4161 70.0234 28.0032 70.1361 28.5696C70.2487 29.136 70.5269 29.6563 70.9352 30.0647C71.3436 30.4731 71.8639 30.7512 72.4303 30.8638C72.9967 30.9765 73.5839 30.9187 74.1175 30.6977C74.651 30.4767 75.107 30.1024 75.4279 29.6222C75.7487 29.142 75.92 28.5775 75.92 28C75.92 27.2255 75.6124 26.4828 75.0648 25.9352C74.5172 25.3876 73.7744 25.08 73 25.08Z" fill="#0A4740"/>
<path id="Vector_21" d="M73 48.4399C72.4225 48.4399 71.8579 48.6112 71.3777 48.932C70.8975 49.2529 70.5232 49.7089 70.3022 50.2425C70.0812 50.776 70.0234 51.3632 70.1361 51.9296C70.2487 52.496 70.5269 53.0163 70.9352 53.4247C71.3436 53.8331 71.8639 54.1112 72.4303 54.2238C72.9967 54.3365 73.5839 54.2787 74.1175 54.0577C74.651 53.8367 75.107 53.4624 75.4279 52.9822C75.7487 52.502 75.92 51.9375 75.92 51.3599C75.92 50.5855 75.6124 49.8428 75.0648 49.2952C74.5172 48.7476 73.7744 48.4399 73 48.4399Z" fill="#0A4740"/>
<path id="Vector_22" d="M73 71.7999C72.4225 71.7999 71.8579 71.9712 71.3777 72.292C70.8975 72.6129 70.5232 73.0689 70.3022 73.6025C70.0812 74.136 70.0234 74.7232 70.1361 75.2896C70.2487 75.856 70.5269 76.3763 70.9352 76.7847C71.3436 77.193 71.8639 77.4711 72.4303 77.5838C72.9967 77.6965 73.5839 77.6387 74.1175 77.4177C74.651 77.1966 75.107 76.8224 75.4279 76.3422C75.7487 75.862 75.92 75.2974 75.92 74.7199C75.92 73.9455 75.6124 73.2028 75.0648 72.6552C74.5172 72.1076 73.7744 71.7999 73 71.7999Z" fill="#0A4740"/>
<path id="Vector_23" d="M73 95.16C72.4225 95.16 71.8579 95.3312 71.3777 95.6521C70.8975 95.9729 70.5232 96.429 70.3022 96.9625C70.0812 97.4961 70.0234 98.0832 70.1361 98.6496C70.2487 99.2161 70.5269 99.7363 70.9352 100.145C71.3436 100.553 71.8639 100.831 72.4303 100.944C72.9967 101.057 73.5839 100.999 74.1175 100.778C74.651 100.557 75.107 100.182 75.4279 99.7022C75.7487 99.222 75.92 98.6575 75.92 98.08C75.92 97.3055 75.6124 96.5628 75.0648 96.0152C74.5172 95.4676 73.7744 95.16 73 95.16Z" fill="#0A4740"/>
<path id="Vector_24" d="M73 118.52C72.4225 118.52 71.8579 118.691 71.3777 119.012C70.8975 119.333 70.5232 119.789 70.3022 120.323C70.0812 120.856 70.0234 121.443 70.1361 122.01C70.2487 122.576 70.5269 123.096 70.9352 123.505C71.3436 123.913 71.8639 124.191 72.4303 124.304C72.9967 124.417 73.5839 124.359 74.1175 124.138C74.651 123.917 75.107 123.542 75.4279 123.062C75.7487 122.582 75.92 122.017 75.92 121.44C75.92 120.666 75.6124 119.923 75.0648 119.375C74.5172 118.828 73.7744 118.52 73 118.52Z" fill="#0A4740"/>
<path id="Vector_25" d="M96.3595 1.71997C95.782 1.71997 95.2174 1.89122 94.7372 2.21207C94.257 2.53293 93.8827 2.98895 93.6617 3.52251C93.4407 4.05607 93.3829 4.64321 93.4956 5.20963C93.6082 5.77605 93.8864 6.29634 94.2947 6.70471C94.7031 7.11308 95.2234 7.39119 95.7898 7.50386C96.3562 7.61653 96.9434 7.55871 97.477 7.3377C98.0105 7.11669 98.4665 6.7424 98.7874 6.26221C99.1082 5.78202 99.2795 5.21749 99.2795 4.63997C99.2795 3.86554 98.9719 3.12281 98.4243 2.5752C97.8767 2.0276 97.1339 1.71997 96.3595 1.71997Z" fill="#0A4740"/>
<path id="Vector_26" d="M96.3595 25.0801C95.782 25.0801 95.2174 25.2513 94.7372 25.5722C94.257 25.893 93.8827 26.3491 93.6617 26.8826C93.4407 27.4162 93.3829 28.0033 93.4956 28.5697C93.6082 29.1362 93.8864 29.6564 94.2947 30.0648C94.7031 30.4732 95.2234 30.7513 95.7898 30.864C96.3562 30.9766 96.9434 30.9188 97.477 30.6978C98.0105 30.4768 98.4665 30.1025 98.7874 29.6223C99.1082 29.1421 99.2795 28.5776 99.2795 28.0001C99.2795 27.2256 98.9719 26.4829 98.4243 25.9353C97.8767 25.3877 97.1339 25.0801 96.3595 25.0801Z" fill="#0A4740"/>
<path id="Vector_27" d="M96.3595 48.4399C95.782 48.4399 95.2174 48.6112 94.7372 48.932C94.257 49.2529 93.8827 49.7089 93.6617 50.2425C93.4407 50.776 93.3829 51.3632 93.4956 51.9296C93.6082 52.496 93.8864 53.0163 94.2947 53.4247C94.7031 53.8331 95.2234 54.1112 95.7898 54.2238C96.3562 54.3365 96.9434 54.2787 97.477 54.0577C98.0105 53.8367 98.4665 53.4624 98.7874 52.9822C99.1082 52.502 99.2795 51.9375 99.2795 51.3599C99.2795 50.5855 98.9719 49.8428 98.4243 49.2952C97.8767 48.7476 97.1339 48.4399 96.3595 48.4399Z" fill="#0A4740"/>
<path id="Vector_28" d="M96.3595 71.8C95.782 71.8 95.2174 71.9713 94.7372 72.2922C94.257 72.613 93.8827 73.069 93.6617 73.6026C93.4407 74.1362 93.3829 74.7233 93.4956 75.2897C93.6082 75.8561 93.8864 76.3764 94.2947 76.7848C94.7031 77.1932 95.2234 77.4713 95.7898 77.5839C96.3562 77.6966 96.9434 77.6388 97.477 77.4178C98.0105 77.1968 98.4665 76.8225 98.7874 76.3423C99.1082 75.8621 99.2795 75.2976 99.2795 74.72C99.2795 73.9456 98.9719 73.2029 98.4243 72.6553C97.8767 72.1077 97.1339 71.8 96.3595 71.8Z" fill="#0A4740"/>
<path id="Vector_29" d="M96.3595 95.1599C95.782 95.1599 95.2174 95.3312 94.7372 95.652C94.257 95.9729 93.8827 96.4289 93.6617 96.9625C93.4407 97.496 93.3829 98.0831 93.4956 98.6496C93.6082 99.216 93.8864 99.7363 94.2947 100.145C94.7031 100.553 95.2234 100.831 95.7898 100.944C96.3562 101.056 96.9434 100.999 97.477 100.778C98.0105 100.557 98.4665 100.182 98.7874 99.7022C99.1082 99.222 99.2795 98.6574 99.2795 98.0799C99.2795 97.3055 98.9719 96.5627 98.4243 96.0151C97.8767 95.4675 97.1339 95.1599 96.3595 95.1599Z" fill="#0A4740"/>
<path id="Vector_30" d="M96.3595 118.52C95.782 118.52 95.2174 118.691 94.7372 119.012C94.257 119.333 93.8827 119.789 93.6617 120.323C93.4407 120.856 93.3829 121.443 93.4956 122.01C93.6082 122.576 93.8864 123.096 94.2947 123.505C94.7031 123.913 95.2234 124.191 95.7898 124.304C96.3562 124.417 96.9434 124.359 97.477 124.138C98.0105 123.917 98.4665 123.542 98.7874 123.062C99.1082 122.582 99.2795 122.018 99.2795 121.44C99.2795 120.666 98.9719 119.923 98.4243 119.375C97.8767 118.828 97.1339 118.52 96.3595 118.52Z" fill="#0A4740"/>
<path id="Vector_31" d="M119.721 1.71997C119.143 1.71997 118.579 1.89122 118.099 2.21207C117.618 2.53293 117.244 2.98895 117.023 3.52251C116.802 4.05607 116.744 4.64321 116.857 5.20963C116.97 5.77605 117.248 6.29634 117.656 6.70471C118.064 7.11308 118.585 7.39119 119.151 7.50386C119.718 7.61653 120.305 7.55871 120.838 7.3377C121.372 7.11669 121.828 6.7424 122.149 6.26221C122.47 5.78202 122.641 5.21749 122.641 4.63997C122.641 3.86554 122.333 3.12281 121.786 2.5752C121.238 2.0276 120.495 1.71997 119.721 1.71997Z" fill="#0A4740"/>
<path id="Vector_32" d="M119.721 25.0801C119.143 25.0801 118.579 25.2513 118.099 25.5722C117.618 25.893 117.244 26.3491 117.023 26.8826C116.802 27.4162 116.744 28.0033 116.857 28.5697C116.97 29.1362 117.248 29.6564 117.656 30.0648C118.064 30.4732 118.585 30.7513 119.151 30.864C119.718 30.9766 120.305 30.9188 120.838 30.6978C121.372 30.4768 121.828 30.1025 122.149 29.6223C122.47 29.1421 122.641 28.5776 122.641 28.0001C122.641 27.2256 122.333 26.4829 121.786 25.9353C121.238 25.3877 120.495 25.0801 119.721 25.0801Z" fill="#0A4740"/>
<path id="Vector_33" d="M119.721 48.4399C119.143 48.4399 118.579 48.6112 118.099 48.932C117.618 49.2529 117.244 49.7089 117.023 50.2425C116.802 50.776 116.744 51.3632 116.857 51.9296C116.97 52.496 117.248 53.0163 117.656 53.4247C118.064 53.8331 118.585 54.1112 119.151 54.2238C119.718 54.3365 120.305 54.2787 120.838 54.0577C121.372 53.8367 121.828 53.4624 122.149 52.9822C122.47 52.502 122.641 51.9375 122.641 51.3599C122.641 50.5855 122.333 49.8428 121.786 49.2952C121.238 48.7476 120.495 48.4399 119.721 48.4399Z" fill="#0A4740"/>
<path id="Vector_34" d="M119.721 71.8C119.143 71.8 118.579 71.9713 118.099 72.2922C117.618 72.613 117.244 73.069 117.023 73.6026C116.802 74.1362 116.744 74.7233 116.857 75.2897C116.97 75.8561 117.248 76.3764 117.656 76.7848C118.064 77.1932 118.585 77.4713 119.151 77.5839C119.718 77.6966 120.305 77.6388 120.838 77.4178C121.372 77.1968 121.828 76.8225 122.149 76.3423C122.47 75.8621 122.641 75.2976 122.641 74.72C122.641 73.9456 122.333 73.2029 121.786 72.6553C121.238 72.1077 120.495 71.8 119.721 71.8Z" fill="#0A4740"/>
<path id="Vector_35" d="M119.721 95.1599C119.143 95.1599 118.579 95.3312 118.099 95.652C117.618 95.9729 117.244 96.4289 117.023 96.9625C116.802 97.496 116.744 98.0831 116.857 98.6496C116.97 99.216 117.248 99.7363 117.656 100.145C118.064 100.553 118.585 100.831 119.151 100.944C119.718 101.056 120.305 100.999 120.838 100.778C121.372 100.557 121.828 100.182 122.149 99.7022C122.47 99.222 122.641 98.6574 122.641 98.0799C122.641 97.3055 122.333 96.5627 121.786 96.0151C121.238 95.4675 120.495 95.1599 119.721 95.1599Z" fill="#0A4740"/>
<path id="Vector_36" d="M119.721 118.52C119.143 118.52 118.579 118.691 118.099 119.012C117.618 119.333 117.244 119.789 117.023 120.323C116.802 120.856 116.744 121.443 116.857 122.01C116.97 122.576 117.248 123.096 117.656 123.505C118.064 123.913 118.585 124.191 119.151 124.304C119.718 124.417 120.305 124.359 120.838 124.138C121.372 123.917 121.828 123.542 122.149 123.062C122.47 122.582 122.641 122.018 122.641 121.44C122.641 120.666 122.333 119.923 121.786 119.375C121.238 118.828 120.495 118.52 119.721 118.52Z" fill="#0A4740"/>
<path id="Vector_37" d="M143.08 1.71997C142.503 1.71997 141.938 1.89122 141.458 2.21207C140.978 2.53293 140.603 2.98895 140.382 3.52251C140.161 4.05607 140.104 4.64321 140.216 5.20963C140.329 5.77605 140.607 6.29634 141.015 6.70471C141.424 7.11308 141.944 7.39119 142.51 7.50386C143.077 7.61653 143.664 7.55871 144.198 7.3377C144.731 7.11669 145.187 6.7424 145.508 6.26221C145.829 5.78202 146 5.21749 146 4.63997C146 3.86554 145.693 3.12281 145.145 2.5752C144.597 2.0276 143.855 1.71997 143.08 1.71997Z" fill="#0A4740"/>
<path id="Vector_38" d="M143.08 25.0801C142.503 25.0801 141.938 25.2513 141.458 25.5722C140.978 25.893 140.603 26.3491 140.382 26.8826C140.161 27.4162 140.104 28.0033 140.216 28.5697C140.329 29.1362 140.607 29.6564 141.015 30.0648C141.424 30.4732 141.944 30.7513 142.51 30.864C143.077 30.9766 143.664 30.9188 144.198 30.6978C144.731 30.4768 145.187 30.1025 145.508 29.6223C145.829 29.1421 146 28.5776 146 28.0001C146 27.2256 145.693 26.4829 145.145 25.9353C144.597 25.3877 143.855 25.0801 143.08 25.0801Z" fill="#0A4740"/>
<path id="Vector_39" d="M143.08 48.4399C142.503 48.4399 141.938 48.6112 141.458 48.932C140.978 49.2529 140.603 49.7089 140.382 50.2425C140.161 50.776 140.104 51.3632 140.216 51.9296C140.329 52.496 140.607 53.0163 141.015 53.4247C141.424 53.8331 141.944 54.1112 142.51 54.2238C143.077 54.3365 143.664 54.2787 144.198 54.0577C144.731 53.8367 145.187 53.4624 145.508 52.9822C145.829 52.502 146 51.9375 146 51.3599C146 50.5855 145.693 49.8428 145.145 49.2952C144.597 48.7476 143.855 48.4399 143.08 48.4399Z" fill="#0A4740"/>
<path id="Vector_40" d="M143.08 71.8C142.503 71.8 141.938 71.9713 141.458 72.2922C140.978 72.613 140.603 73.069 140.382 73.6026C140.161 74.1362 140.104 74.7233 140.216 75.2897C140.329 75.8561 140.607 76.3764 141.015 76.7848C141.424 77.1932 141.944 77.4713 142.51 77.5839C143.077 77.6966 143.664 77.6388 144.198 77.4178C144.731 77.1968 145.187 76.8225 145.508 76.3423C145.829 75.8621 146 75.2976 146 74.72C146 73.9456 145.693 73.2029 145.145 72.6553C144.597 72.1077 143.855 71.8 143.08 71.8Z" fill="#0A4740"/>
<path id="Vector_41" d="M143.08 95.1599C142.503 95.1599 141.938 95.3312 141.458 95.652C140.978 95.9729 140.603 96.4289 140.382 96.9625C140.161 97.496 140.104 98.0831 140.216 98.6496C140.329 99.216 140.607 99.7363 141.015 100.145C141.424 100.553 141.944 100.831 142.51 100.944C143.077 101.056 143.664 100.999 144.198 100.778C144.731 100.557 145.187 100.182 145.508 99.7022C145.829 99.222 146 98.6574 146 98.0799C146 97.3055 145.693 96.5627 145.145 96.0151C144.597 95.4675 143.855 95.1599 143.08 95.1599Z" fill="#0A4740"/>
<path id="Vector_42" d="M143.08 118.52C142.503 118.52 141.938 118.691 141.458 119.012C140.978 119.333 140.603 119.789 140.382 120.323C140.161 120.856 140.104 121.443 140.216 122.01C140.329 122.576 140.607 123.096 141.015 123.505C141.424 123.913 141.944 124.191 142.51 124.304C143.077 124.417 143.664 124.359 144.198 124.138C144.731 123.917 145.187 123.542 145.508 123.062C145.829 122.582 146 122.018 146 121.44C146 120.666 145.693 119.923 145.145 119.375C144.597 118.828 143.855 118.52 143.08 118.52Z" fill="#0A4740"/>
</g>
</svg>
