<svg width="350" height="109" viewBox="0 0 350 109" fill="none" xmlns="http://www.w3.org/2000/svg">
<path opacity="0.25" fill-rule="evenodd" clip-rule="evenodd" d="M161.584 15.3658L163.946 17.4291L187.272 7.13982L210.625 17.4291L212.988 15.3658L187.272 0L161.584 15.3658ZM147.641 24.8678L146.554 27.5555L146.5 27.5826C146.093 28.5871 145.876 29.6458 145.876 30.7318V86.7115C145.876 87.7703 146.093 88.8289 146.473 89.8063L147.586 92.6026H0L1.11336 89.8063C1.52068 88.8018 1.71072 87.7703 1.71072 86.7115V30.7048C1.71072 29.6188 1.52068 28.56 1.11336 27.5555L0.0271399 24.8678H11.8666V86.6843C11.8666 87.5531 12.0024 88.4218 12.274 89.2363H68.5115C68.7831 88.4218 68.9188 87.5531 68.9188 86.6843V59.2104C68.9188 58.1244 68.7288 57.0656 68.3214 56.0611L67.2352 53.3734H80.7855L79.6993 56.0611C79.3191 57.0656 79.1019 58.1244 79.1019 59.2104V86.6843C79.1019 87.5531 79.2377 88.4218 79.5092 89.2363H135.394C135.665 88.4218 135.801 87.5531 135.801 86.6843V24.8678H147.641ZM347.92 24.8678V86.6843H347.893C347.893 87.7431 348.11 88.8018 348.49 89.7791L349.603 92.5754H336.053L337.166 89.7791C337.574 88.8018 337.764 87.7431 337.764 86.6843V30.7048C337.764 29.6188 337.574 28.56 337.166 27.5555L336.08 24.8678H347.92ZM255.675 86.6839C255.675 87.7426 255.865 88.8013 256.245 89.7786L256.273 89.8058L257.386 92.6021H209.295C203.592 99.7693 196.016 105.497 187.164 108.972V97.9231C190.612 96.1856 193.789 94.0139 196.586 91.462C193.599 92.3579 190.422 92.8194 187.164 92.8194C168.617 92.8194 153.573 77.7791 153.573 59.2369C153.573 40.6947 168.617 25.6546 187.164 25.6546C205.71 25.6546 220.754 40.6947 220.754 59.2369V59.8071C220.754 70.5306 217.468 80.7383 211.712 89.2628H245.112C245.384 88.4212 245.519 87.5526 245.519 86.6839V59.2369C245.519 58.151 245.329 57.0923 244.922 56.0878L243.836 53.4002H255.675V86.6839ZM210.544 62.902C210.653 61.8704 210.707 60.8387 210.707 59.8071V59.2369C210.707 42.8394 200.171 29.5368 187.164 29.5368C174.157 29.5368 163.593 42.8666 163.593 59.2369C163.593 75.6073 174.157 88.91 187.164 88.91C199.193 88.91 209.105 77.562 210.544 62.902ZM75.7236 108.947H85.8795V104.494V104.494C85.8795 104.25 85.8795 104.006 85.9066 103.788C85.9881 102.947 86.1782 102.132 86.4769 101.372L87.5631 98.6846H75.6964V108.974L75.7236 108.947ZM245.456 103.761C245.401 102.946 245.211 102.132 244.885 101.344L244.858 101.317L243.772 98.6295H255.639V108.919H245.483V104.466C245.483 104.361 245.476 104.249 245.47 104.134V104.134C245.463 104.012 245.456 103.886 245.456 103.761ZM61.1806 101.344C61.5065 102.132 61.6965 102.946 61.7508 103.761C61.7508 103.886 61.758 104.012 61.765 104.134C61.7716 104.249 61.778 104.361 61.778 104.466V108.919H71.9339V98.6295H60.0672L61.1535 101.317L61.1806 101.344ZM296.74 25.6822C315.287 25.6822 330.33 40.7223 330.33 59.2645V59.8346C330.33 81.5532 316.889 101.127 296.74 109V97.9506C300.161 96.2132 303.338 94.0413 306.135 91.4894C303.148 92.3853 299.998 92.8468 296.74 92.8468C278.193 92.8468 263.149 77.8067 263.149 59.2645C263.149 40.7223 278.193 25.6822 296.74 25.6822ZM320.147 62.9296C320.229 61.8979 320.31 60.8663 320.31 59.8346V59.2645C320.31 42.867 309.774 29.5643 296.767 29.5643C283.76 29.5643 273.197 42.8941 273.197 59.2645C273.197 75.6348 283.76 88.9374 296.767 88.9374C308.797 88.9374 318.708 77.5896 320.147 62.9296Z" fill="#509F96"/>
</svg>
